<svg width="129" height="27" viewBox="0 0 129 27" fill="none" xmlns="http://www.w3.org/2000/svg">
<path d="M1.42 20V5.9H6.94C9.34 5.9 11.2 6.51333 12.52 7.74C13.84 8.95333 14.5 10.6867 14.5 12.94C14.5 15.1933 13.84 16.9333 12.52 18.16C11.2 19.3867 9.34 20 6.94 20H1.42ZM4.52 17.46H6.76C9.76 17.46 11.26 15.9533 11.26 12.94C11.26 9.94 9.76 8.44 6.76 8.44H4.52V17.46ZM19.9683 20.22C19.2349 20.22 18.5883 20.08 18.0283 19.8C17.4683 19.52 17.0216 19.14 16.6883 18.66C16.3683 18.18 16.2083 17.64 16.2083 17.04C16.2083 16.3333 16.3949 15.7667 16.7683 15.34C17.1416 14.9133 17.7483 14.6133 18.5883 14.44C19.4283 14.2533 20.5416 14.16 21.9283 14.16H22.6483V13.82C22.6483 13.2333 22.5149 12.82 22.2483 12.58C21.9816 12.3267 21.5283 12.2 20.8883 12.2C20.3549 12.2 19.7883 12.2867 19.1883 12.46C18.6016 12.62 18.0149 12.8667 17.4283 13.2L16.6083 11.18C16.9549 10.9533 17.3749 10.7467 17.8683 10.56C18.3749 10.3733 18.9016 10.2333 19.4483 10.14C19.9949 10.0333 20.5149 9.98 21.0083 9.98C22.5283 9.98 23.6616 10.3267 24.4083 11.02C25.1549 11.7 25.5283 12.76 25.5283 14.2V20H22.7083V18.52C22.5083 19.04 22.1683 19.4533 21.6883 19.76C21.2216 20.0667 20.6483 20.22 19.9683 20.22ZM20.6483 18.2C21.2083 18.2 21.6816 18.0067 22.0683 17.62C22.4549 17.2333 22.6483 16.7333 22.6483 16.12V15.72H21.9483C20.9216 15.72 20.1949 15.8133 19.7683 16C19.3416 16.1733 19.1283 16.48 19.1283 16.92C19.1283 17.2933 19.2549 17.6 19.5083 17.84C19.7749 18.08 20.1549 18.2 20.6483 18.2ZM31.5411 20.22C30.6744 20.22 29.8678 20.12 29.1211 19.92C28.3744 19.72 27.7544 19.4467 27.2611 19.1L27.9811 17.14C28.4744 17.4467 29.0344 17.6933 29.6611 17.88C30.3011 18.0533 30.9344 18.14 31.5611 18.14C32.1211 18.14 32.5344 18.0533 32.8011 17.88C33.0678 17.6933 33.2011 17.4533 33.2011 17.16C33.2011 16.6933 32.8611 16.4 32.1811 16.28L30.0811 15.9C29.2411 15.7533 28.6011 15.4533 28.1611 15C27.7211 14.5467 27.5011 13.9533 27.5011 13.22C27.5011 12.5533 27.6878 11.98 28.0611 11.5C28.4344 11.02 28.9478 10.6467 29.6011 10.38C30.2544 10.1133 31.0078 9.98 31.8611 9.98C32.5678 9.98 33.2544 10.0733 33.9211 10.26C34.5878 10.4333 35.1611 10.7133 35.6411 11.1L34.8811 13.04C34.4811 12.7467 34.0011 12.5067 33.4411 12.32C32.8944 12.1333 32.3811 12.04 31.9011 12.04C31.3011 12.04 30.8678 12.14 30.6011 12.34C30.3344 12.5267 30.2011 12.7667 30.2011 13.06C30.2011 13.5267 30.5144 13.82 31.1411 13.94L33.2411 14.32C34.1078 14.4667 34.7678 14.76 35.2211 15.2C35.6744 15.6267 35.9011 16.2133 35.9011 16.96C35.9011 17.9867 35.5011 18.7867 34.7011 19.36C33.9011 19.9333 32.8478 20.22 31.5411 20.22ZM37.6248 20V5.9H40.6448V11.52C40.9915 11.0133 41.4382 10.6333 41.9848 10.38C42.5315 10.1133 43.1382 9.98 43.8048 9.98C46.1115 9.98 47.2648 11.3533 47.2648 14.1V20H44.2448V14.24C44.2448 13.56 44.1182 13.0733 43.8648 12.78C43.6115 12.4733 43.2382 12.32 42.7448 12.32C42.1048 12.32 41.5915 12.52 41.2048 12.92C40.8315 13.32 40.6448 13.8533 40.6448 14.52V20H37.6248Z" fill="#4880FF"/>
<path d="M54.8194 20.22C53.7127 20.22 52.666 20.08 51.6794 19.8C50.706 19.52 49.8927 19.14 49.2394 18.66L50.1394 16.22C50.766 16.66 51.4794 17.0067 52.2794 17.26C53.0927 17.5133 53.9394 17.64 54.8194 17.64C55.7794 17.64 56.466 17.4933 56.8794 17.2C57.306 16.8933 57.5194 16.5133 57.5194 16.06C57.5194 15.6733 57.3727 15.3667 57.0794 15.14C56.786 14.9133 56.2727 14.72 55.5394 14.56L53.2794 14.08C50.7594 13.5467 49.4994 12.24 49.4994 10.16C49.4994 9.26667 49.7394 8.48667 50.2194 7.82C50.6994 7.14 51.366 6.61333 52.2194 6.24C53.086 5.86667 54.086 5.68 55.2194 5.68C56.1927 5.68 57.106 5.82 57.9594 6.1C58.8127 6.38 59.5194 6.77333 60.0794 7.28L59.1794 9.56C58.086 8.69333 56.7594 8.26 55.1994 8.26C54.3594 8.26 53.706 8.42667 53.2394 8.76C52.786 9.08 52.5594 9.5 52.5594 10.02C52.5594 10.4067 52.6994 10.72 52.9794 10.96C53.2594 11.2 53.746 11.3933 54.4394 11.54L56.6994 12.02C59.286 12.58 60.5794 13.8467 60.5794 15.82C60.5794 16.7 60.3394 17.4733 59.8594 18.14C59.3927 18.7933 58.726 19.3067 57.8594 19.68C57.006 20.04 55.9927 20.22 54.8194 20.22ZM67.0152 20.22C64.2552 20.22 62.8752 18.88 62.8752 16.2V12.44H61.0152V10.18H62.8752V7.3H65.8952V10.18H68.7952V12.44H65.8952V16.08C65.8952 16.64 66.0218 17.06 66.2752 17.34C66.5418 17.62 66.9618 17.76 67.5352 17.76C67.7085 17.76 67.8885 17.74 68.0752 17.7C68.2752 17.66 68.4885 17.6067 68.7152 17.54L69.1552 19.74C68.8752 19.8867 68.5418 20 68.1552 20.08C67.7685 20.1733 67.3885 20.22 67.0152 20.22ZM73.6011 20.22C72.8678 20.22 72.2211 20.08 71.6611 19.8C71.1011 19.52 70.6544 19.14 70.3211 18.66C70.0011 18.18 69.8411 17.64 69.8411 17.04C69.8411 16.3333 70.0278 15.7667 70.4011 15.34C70.7744 14.9133 71.3811 14.6133 72.2211 14.44C73.0611 14.2533 74.1744 14.16 75.5611 14.16H76.2811V13.82C76.2811 13.2333 76.1478 12.82 75.8811 12.58C75.6144 12.3267 75.1611 12.2 74.5211 12.2C73.9878 12.2 73.4211 12.2867 72.8211 12.46C72.2344 12.62 71.6478 12.8667 71.0611 13.2L70.2411 11.18C70.5878 10.9533 71.0078 10.7467 71.5011 10.56C72.0078 10.3733 72.5344 10.2333 73.0811 10.14C73.6278 10.0333 74.1478 9.98 74.6411 9.98C76.1611 9.98 77.2944 10.3267 78.0411 11.02C78.7878 11.7 79.1611 12.76 79.1611 14.2V20H76.3411V18.52C76.1411 19.04 75.8011 19.4533 75.3211 19.76C74.8544 20.0667 74.2811 20.22 73.6011 20.22ZM74.2811 18.2C74.8411 18.2 75.3144 18.0067 75.7011 17.62C76.0878 17.2333 76.2811 16.7333 76.2811 16.12V15.72H75.5811C74.5544 15.72 73.8278 15.8133 73.4011 16C72.9744 16.1733 72.7611 16.48 72.7611 16.92C72.7611 17.2933 72.8878 17.6 73.1411 17.84C73.4078 18.08 73.7878 18.2 74.2811 18.2ZM86.1939 20.22C85.1272 20.22 84.1939 20.0133 83.3939 19.6C82.6072 19.1733 82.0006 18.5733 81.5739 17.8C81.1472 17.0267 80.9339 16.1133 80.9339 15.06C80.9339 14.0067 81.1472 13.1 81.5739 12.34C82.0006 11.58 82.6072 11 83.3939 10.6C84.1939 10.1867 85.1272 9.98 86.1939 9.98C86.8206 9.98 87.4539 10.0733 88.0939 10.26C88.7339 10.4467 89.2539 10.7133 89.6539 11.06L88.8139 13.14C88.4806 12.8733 88.1072 12.6667 87.6939 12.52C87.2806 12.36 86.8806 12.28 86.4939 12.28C85.7072 12.28 85.0939 12.5267 84.6539 13.02C84.2272 13.5 84.0139 14.1867 84.0139 15.08C84.0139 15.96 84.2272 16.6533 84.6539 17.16C85.0939 17.6533 85.7072 17.9 86.4939 17.9C86.8672 17.9 87.2606 17.8267 87.6739 17.68C88.1006 17.5333 88.4806 17.32 88.8139 17.04L89.6539 19.12C89.2539 19.4667 88.7339 19.74 88.0939 19.94C87.4539 20.1267 86.8206 20.22 86.1939 20.22ZM90.9647 20V5.9H93.9847V14.24H94.0247L97.6447 10.18H101.225L97.0647 14.88L101.425 20H97.7847L94.0247 15.76H93.9847V20H90.9647Z" fill="#202224"/>
</svg>
