<?xml version="1.0" encoding="utf-8"?>

<!-- Uploaded to: SVG Repo, www.svgrepo.com, Generator: SVG Repo Mixer Tools -->
<svg version="1.1" id="Icons" xmlns="http://www.w3.org/2000/svg" xmlns:xlink="http://www.w3.org/1999/xlink" 
	 viewBox="0 0 32 32" xml:space="preserve">
<style type="text/css">
	.st0{fill:none;stroke:#000000;stroke-width:2;stroke-linecap:round;stroke-linejoin:round;stroke-miterlimit:10;}
	
		.st1{fill:none;stroke:#000000;stroke-width:2;stroke-linecap:round;stroke-linejoin:round;stroke-miterlimit:10;stroke-dasharray:3;}
	.st2{fill:none;stroke:#000000;stroke-width:2;stroke-linejoin:round;stroke-miterlimit:10;}
	.st3{fill:none;}
</style>
<path class="st0" d="M29,12.6V10c0-0.6-0.4-1-1-1h-6.3c-0.3,0.6-1,1-1.7,1s-1.4-0.4-1.7-1H4c-0.6,0-1,0.4-1,1v2.6c1.2,0.7,2,2,2,3.4
	s-0.8,2.8-2,3.4V22c0,0.6,0.4,1,1,1h14.3c0.3-0.6,1-1,1.7-1s1.4,0.4,1.7,1H28c0.6,0,1-0.4,1-1v-2.6c-1.2-0.7-2-2-2-3.4
	S27.8,13.2,29,12.6z"/>
<line class="st0" x1="20" y1="12" x2="20" y2="15"/>
<line class="st0" x1="20" y1="20" x2="20" y2="17"/>
<line class="st0" x1="10" y1="19" x2="14" y2="13"/>
<line class="st0" x1="9" y1="12" x2="9" y2="15"/>
<line class="st0" x1="15" y1="17" x2="15" y2="20"/>
<rect x="-360" y="-360" class="st3" width="536" height="680"/>
</svg>